<svg width="112" height="66" viewBox="0 0 112 66" fill="none" xmlns="http://www.w3.org/2000/svg">
<path d="M0 61.1445C0.311168 63.2338 2.31153 65.1008 5.31208 65.1008C9.42395 65.1008 11.0465 62.3669 11.0465 59.3664V49.6091H8.2015V50.8982C7.82365 50.1647 6.82347 49.409 5.08982 49.409C2.08927 49.409 0 51.8539 0 54.7433C0 57.8106 2.17818 60.0554 5.08982 60.0554C6.66789 60.0554 7.6903 59.3664 8.13482 58.6552V59.4553C8.13482 61.5668 7.09019 62.5003 5.22318 62.5003C3.82292 62.5003 2.86719 61.6335 2.66715 60.4333L0 61.1445ZM5.60103 57.5216C4.06741 57.5216 2.97832 56.4548 2.97832 54.7433C2.97832 53.0541 4.13409 51.9873 5.60103 51.9873C7.02351 51.9873 8.17927 53.0541 8.17927 54.7433C8.17927 56.4325 7.11241 57.5216 5.60103 57.5216Z" fill="#6966FF"/>
<path d="M17.0146 49.6091H14.0585V60.5444H17.0146V51.6094C17.0813 52.6318 17.9258 53.4098 18.9927 53.4098C20.104 53.4098 20.9708 52.5429 20.9708 51.4316C20.9708 50.3203 20.104 49.4535 18.9927 49.4535C17.9258 49.4535 17.0813 50.2536 17.0146 51.2983V49.6091Z" fill="#6966FF"/>
<path d="M22.0961 57.5661C22.0961 59.2775 23.5185 60.8556 25.8523 60.8556C27.4748 60.8556 28.5195 60.0999 29.0751 59.233C29.0751 59.6553 29.1196 60.2554 29.1862 60.5444H31.8979C31.8312 60.1665 31.7645 59.3886 31.7645 58.8107V53.432C31.7645 51.2316 30.4754 49.2757 27.0081 49.2757C24.0742 49.2757 22.4961 51.1649 22.3183 52.8763L24.941 53.432C25.0299 52.4763 25.7412 51.6539 27.0303 51.6539C28.275 51.6539 28.8751 52.2984 28.8751 53.0764C28.8751 53.4542 28.675 53.7654 28.0527 53.8543L25.3633 54.2544C23.5408 54.5211 22.0961 55.6102 22.0961 57.5661ZM26.4746 58.6552C25.5189 58.6552 25.0522 58.0328 25.0522 57.3883C25.0522 56.5437 25.6523 56.1214 26.408 56.0102L28.8751 55.6324V56.1214C28.8751 58.055 27.7193 58.6552 26.4746 58.6552Z" fill="#6966FF"/>
<path d="M37.6564 54.2544C37.6564 52.9875 38.4121 51.9873 39.7012 51.9873C41.1237 51.9873 41.7238 52.943 41.7238 54.1654V60.5444H44.6799V53.6542C44.6799 51.2538 43.4352 49.3201 40.7236 49.3201C39.5456 49.3201 38.2342 49.8313 37.5675 50.9649V49.6091H34.7003V60.5444H37.6564V54.2544Z" fill="#6966FF"/>
<path d="M51.4384 46.3418H48.7712V47.8754C48.7712 48.8534 48.2378 49.6091 47.0821 49.6091H46.5264V52.2318H48.5045V57.3216C48.5045 59.4331 49.8381 60.7 51.9718 60.7C52.8387 60.7 53.3721 60.5444 53.6388 60.4333V57.9884C53.4832 58.0328 53.0831 58.0773 52.7275 58.0773C51.8829 58.0773 51.4384 57.7661 51.4384 56.8104V52.2318H53.6388V49.6091H51.4384V46.3418Z" fill="#6966FF"/>
<path d="M55.2815 57.4994C55.4148 58.7441 56.5484 60.8778 59.8379 60.8778C62.705 60.8778 64.0831 59.0552 64.0831 57.2771C64.0831 55.6768 62.994 54.3655 60.838 53.921L59.2822 53.5876C58.6821 53.4764 58.282 53.143 58.282 52.6096C58.282 51.9873 58.9044 51.5205 59.6823 51.5205C60.9269 51.5205 61.3937 52.3429 61.4826 52.9875L63.9497 52.4318C63.8164 51.2538 62.7717 49.2757 59.66 49.2757C57.3041 49.2757 55.5704 50.8982 55.5704 52.8541C55.5704 54.3877 56.5261 55.6546 58.6376 56.1214L60.0823 56.4548C60.9269 56.6326 61.2603 57.0326 61.2603 57.5216C61.2603 58.0995 60.7936 58.6107 59.8156 58.6107C58.5265 58.6107 57.8819 57.8106 57.8153 56.9437L55.2815 57.4994Z" fill="#6966FF"/>
<path fill-rule="evenodd" clip-rule="evenodd" d="M86.221 34.2363C86.425 34.2363 86.5904 34.4017 86.5904 34.6058L86.5904 34.6307C86.5904 34.8347 86.425 35.0001 86.221 35.0001C86.017 35.0001 85.8516 34.8347 85.8516 34.6307L85.8516 34.6058C85.8516 34.4017 86.017 34.2363 86.221 34.2363ZM86.221 38.2536C86.425 38.2536 86.5904 38.419 86.5904 38.6231L86.5904 38.673C86.5904 38.877 86.425 39.0424 86.221 39.0424C86.017 39.0424 85.8516 38.877 85.8516 38.673L85.8516 38.6231C85.8516 38.419 86.017 38.2536 86.221 38.2536ZM86.221 42.2959C86.425 42.2959 86.5904 42.4613 86.5904 42.6653L86.5904 42.7152C86.5904 42.9193 86.425 43.0847 86.221 43.0847C86.017 43.0847 85.8516 42.9193 85.8516 42.7152L85.8516 42.6653C85.8516 42.4613 86.017 42.2959 86.221 42.2959ZM86.221 46.3382C86.425 46.3382 86.5904 46.5036 86.5904 46.7076L86.5904 46.7575C86.5904 46.9615 86.425 47.1269 86.221 47.1269C86.017 47.1269 85.8516 46.9615 85.8516 46.7575L85.8516 46.7076C85.8516 46.5036 86.017 46.3382 86.221 46.3382ZM86.221 50.3805C86.425 50.3805 86.5904 50.5459 86.5904 50.7499L86.5904 50.7748C86.5904 50.9789 86.425 51.1443 86.221 51.1443C86.017 51.1443 85.8516 50.9789 85.8516 50.7748L85.8516 50.7499C85.8516 50.5459 86.017 50.3805 86.221 50.3805Z" fill="#55555E"/>
<path fill-rule="evenodd" clip-rule="evenodd" d="M86.221 4.20703C86.425 4.20703 86.5904 4.37243 86.5904 4.57646L86.5904 4.59984C86.5904 4.80387 86.425 4.96926 86.221 4.96926C86.017 4.96926 85.8516 4.80387 85.8516 4.59984L85.8516 4.57646C85.8516 4.37243 86.017 4.20703 86.221 4.20703ZM86.221 7.97154C86.425 7.97154 86.5904 8.13694 86.5904 8.34097L86.5904 8.38773C86.5904 8.59176 86.425 8.75716 86.221 8.75716C86.017 8.75716 85.8516 8.59176 85.8516 8.38773L85.8516 8.34097C85.8516 8.13694 86.017 7.97154 86.221 7.97154ZM86.221 11.7594C86.425 11.7594 86.5904 11.9248 86.5904 12.1289L86.5904 12.1756C86.5904 12.3797 86.425 12.545 86.221 12.545C86.017 12.545 85.8516 12.3797 85.8516 12.1756L85.8516 12.1289C85.8516 11.9248 86.017 11.7594 86.221 11.7594ZM86.221 15.5473C86.425 15.5473 86.5904 15.7127 86.5904 15.9168L86.5904 15.9401C86.5904 16.1442 86.425 16.3096 86.221 16.3096C86.017 16.3096 85.8516 16.1442 85.8516 15.9401L85.8516 15.9168C85.8516 15.7127 86.017 15.5473 86.221 15.5473Z" fill="#55555E"/>
<path fill-rule="evenodd" clip-rule="evenodd" d="M111.568 25.7972C111.568 26.0012 111.403 26.1666 111.199 26.1666L111.177 26.1666C110.973 26.1666 110.807 26.0012 110.807 25.7972C110.807 25.5931 110.973 25.4277 111.177 25.4277L111.199 25.4277C111.403 25.4277 111.568 25.5931 111.568 25.7972ZM107.97 25.7972C107.97 26.0012 107.804 26.1666 107.6 26.1666L107.556 26.1666C107.352 26.1666 107.186 26.0012 107.186 25.7972C107.186 25.5931 107.352 25.4277 107.556 25.4277L107.6 25.4277C107.804 25.4277 107.97 25.5931 107.97 25.7972ZM104.349 25.7972C104.349 26.0012 104.183 26.1666 103.979 26.1666L103.935 26.1666C103.731 26.1666 103.565 26.0012 103.565 25.7972C103.565 25.5931 103.731 25.4277 103.935 25.4277L103.979 25.4277C104.183 25.4277 104.349 25.5931 104.349 25.7972ZM100.728 25.7972C100.728 26.0012 100.562 26.1666 100.358 26.1666L100.314 26.1666C100.11 26.1666 99.9443 26.0012 99.9443 25.7972C99.9443 25.5931 100.11 25.4277 100.314 25.4277L100.358 25.4277C100.562 25.4277 100.728 25.5931 100.728 25.7972ZM97.107 25.7972C97.107 26.0012 96.9416 26.1666 96.7375 26.1666L96.6928 26.1666C96.4888 26.1666 96.3234 26.0012 96.3234 25.7972C96.3234 25.5931 96.4888 25.4277 96.6928 25.4277L96.7375 25.4277C96.9416 25.4277 97.107 25.5931 97.107 25.7972ZM93.486 25.7972C93.486 26.0012 93.3206 26.1666 93.1166 26.1666L93.0942 26.1666C92.8902 26.1666 92.7248 26.0012 92.7248 25.7972C92.7248 25.5931 92.8902 25.4277 93.0942 25.4277L93.1166 25.4277C93.3206 25.4277 93.486 25.5931 93.486 25.7972Z" fill="#55555E"/>
<path fill-rule="evenodd" clip-rule="evenodd" d="M79.877 25.7972C79.877 26.0012 79.7116 26.1666 79.5075 26.1666H79.485C79.281 26.1666 79.1156 26.0012 79.1156 25.7972C79.1156 25.5931 79.281 25.4277 79.485 25.4277H79.5075C79.7116 25.4277 79.877 25.5931 79.877 25.7972ZM76.2469 25.7972C76.2469 26.0012 76.0815 26.1666 75.8775 26.1666H75.8324C75.6284 26.1666 75.463 26.0012 75.463 25.7972C75.463 25.5931 75.6284 25.4277 75.8324 25.4277H75.8775C76.0815 25.4277 76.2469 25.5931 76.2469 25.7972ZM72.5943 25.7972C72.5943 26.0012 72.4289 26.1666 72.2249 26.1666H72.1798C71.9758 26.1666 71.8104 26.0012 71.8104 25.7972C71.8104 25.5931 71.9758 25.4277 72.1798 25.4277H72.2249C72.4289 25.4277 72.5943 25.5931 72.5943 25.7972Z" fill="#55555E"/>
<path fill-rule="evenodd" clip-rule="evenodd" d="M86.1983 0.451172H86.2477C86.4517 0.451367 86.617 0.616921 86.6168 0.820949C86.6166 1.02498 86.451 1.19022 86.247 1.19002H86.199C85.995 1.19022 85.8295 1.02498 85.8293 0.820949C85.8291 0.616921 85.9943 0.451367 86.1983 0.451172ZM82.7066 1.06362C82.7381 1.2652 82.6002 1.45414 82.3986 1.48561L82.3514 1.49304C82.1498 1.52491 81.9606 1.38738 81.9288 1.18586C81.8969 0.984338 82.0344 0.795135 82.2359 0.763263L82.2846 0.755612C82.4862 0.724133 82.6752 0.862031 82.7066 1.06362ZM89.7394 1.06362C89.7709 0.862032 89.9598 0.724133 90.1614 0.755612L90.2101 0.763264C90.4116 0.795135 90.5491 0.984339 90.5173 1.18586C90.4854 1.38738 90.2962 1.52491 90.0947 1.49304L90.0474 1.48561C89.8458 1.45414 89.7079 1.2652 89.7394 1.06362ZM93.5632 1.91462C93.626 1.7205 93.8343 1.61407 94.0285 1.67689L94.0752 1.69209C94.2692 1.75529 94.3753 1.96379 94.3121 2.15778C94.2488 2.35177 94.0404 2.45779 93.8464 2.39459L93.801 2.37985C93.6068 2.31702 93.5004 2.10873 93.5632 1.91462ZM78.8828 1.91462C78.9456 2.10873 78.8392 2.31702 78.6451 2.37985L78.5997 2.39459C78.4057 2.45779 78.1972 2.35177 78.134 2.15778C78.0708 1.96379 78.1768 1.75529 78.3708 1.69209L78.4176 1.6769C78.6117 1.61407 78.82 1.7205 78.8828 1.91462ZM97.2048 3.35734C97.2974 3.17554 97.5199 3.10322 97.7017 3.19582L97.7454 3.21815C97.9271 3.3111 97.9989 3.53369 97.906 3.71531C97.813 3.89694 97.5905 3.96882 97.4088 3.87587L97.3664 3.85419C97.1845 3.76159 97.1122 3.53915 97.2048 3.35734ZM75.2412 3.35734C75.3338 3.53915 75.2615 3.76159 75.0797 3.85419L75.0372 3.87587C74.8556 3.96882 74.633 3.89694 74.54 3.71532C74.4471 3.53369 74.519 3.3111 74.7006 3.21815L74.7444 3.19582C74.9262 3.10322 75.1486 3.17554 75.2412 3.35734ZM71.8715 5.35399C71.9914 5.51907 71.9548 5.75009 71.7897 5.86999L71.7511 5.89804C71.5863 6.01826 71.3552 5.98208 71.235 5.81723C71.1148 5.65238 71.1509 5.42129 71.3158 5.30107L71.3555 5.27218C71.5206 5.15228 71.7516 5.18891 71.8715 5.35399ZM100.575 5.35399C100.694 5.18891 100.925 5.15228 101.091 5.27218L101.13 5.30107C101.295 5.42129 101.331 5.65238 101.211 5.81723C101.091 5.98208 100.86 6.01826 100.695 5.89804L100.656 5.86999C100.491 5.75009 100.455 5.51907 100.575 5.35399ZM68.8546 7.85215C68.9987 7.99656 68.9985 8.23046 68.8541 8.37459L68.8204 8.40832C68.6762 8.55272 68.4423 8.55295 68.2979 8.40882C68.1535 8.26469 68.1533 8.03078 68.2974 7.88637L68.3321 7.85165C68.4765 7.70752 68.7104 7.70774 68.8546 7.85215ZM103.591 7.85215C103.736 7.70774 103.969 7.70752 104.114 7.85165L104.149 7.88637C104.293 8.03078 104.293 8.26469 104.148 8.40882C104.004 8.55295 103.77 8.55272 103.626 8.40832L103.592 8.37459C103.448 8.23046 103.447 7.99656 103.591 7.85215ZM106.183 10.7892C106.348 10.669 106.579 10.7052 106.699 10.87L106.728 10.9097C106.848 11.0748 106.811 11.3058 106.646 11.4257C106.481 11.5456 106.25 11.509 106.13 11.3439L106.102 11.3054C105.982 11.1405 106.018 10.9094 106.183 10.7892ZM108.285 14.0943C108.467 14.0013 108.689 14.0732 108.782 14.2548L108.804 14.2986C108.897 14.4804 108.825 14.7028 108.643 14.7954C108.461 14.888 108.239 14.8157 108.146 14.6339L108.124 14.5914C108.031 14.4098 108.103 14.1872 108.285 14.0943ZM109.843 17.6882C110.036 17.625 110.245 17.731 110.308 17.925L110.323 17.9718C110.386 18.1659 110.28 18.3742 110.086 18.437C109.892 18.4999 109.683 18.3934 109.62 18.1993L109.606 18.1539C109.542 17.9599 109.649 17.7514 109.843 17.6882ZM110.814 21.483C111.016 21.4511 111.205 21.5887 111.237 21.7902L111.245 21.8389C111.276 22.0405 111.138 22.2294 110.937 22.2609C110.735 22.2924 110.546 22.1545 110.515 21.9529L110.507 21.9056C110.475 21.7041 110.613 21.5149 110.814 21.483ZM111.179 25.3835C111.383 25.3833 111.549 25.5485 111.549 25.7526V25.802C111.549 26.006 111.383 26.1712 111.179 26.171C110.975 26.1708 110.81 26.0053 110.81 25.8012V25.7533C110.81 25.5492 110.975 25.3837 111.179 25.3835ZM110.937 29.2936C111.138 29.3251 111.276 29.5141 111.245 29.7156L111.237 29.7643C111.205 29.9659 111.016 30.1034 110.814 30.0715C110.613 30.0396 110.475 29.8504 110.507 29.6489L110.515 29.6017C110.546 29.4001 110.735 29.2622 110.937 29.2936ZM110.086 33.1175C110.28 33.1803 110.386 33.3886 110.323 33.5827L110.308 33.6295C110.245 33.8235 110.036 33.9295 109.843 33.8663C109.649 33.8031 109.542 33.5946 109.606 33.4006L109.62 33.3552C109.683 33.1611 109.892 33.0546 110.086 33.1175ZM108.643 36.7591C108.825 36.8517 108.897 37.0741 108.804 37.2559L108.782 37.2997C108.689 37.4813 108.467 37.5532 108.285 37.4602C108.103 37.3673 108.031 37.1447 108.124 36.9631L108.146 36.9206C108.239 36.7388 108.461 36.6665 108.643 36.7591ZM106.646 40.1288C106.811 40.2487 106.848 40.4797 106.728 40.6448L106.699 40.6845C106.579 40.8493 106.348 40.8855 106.183 40.7653C106.018 40.6451 105.982 40.414 106.102 40.2491L106.13 40.2106C106.25 40.0455 106.481 40.0089 106.646 40.1288ZM68.2979 43.1457C68.4423 43.0016 68.6762 43.0018 68.8204 43.1462L68.8541 43.1799C68.9985 43.3241 68.9987 43.558 68.8546 43.7024C68.7104 43.8468 68.4765 43.847 68.3321 43.7029L68.2974 43.6681C68.1533 43.5237 68.1535 43.2898 68.2979 43.1457ZM104.148 43.1457C104.293 43.2898 104.293 43.5237 104.149 43.6681L104.114 43.7029C103.969 43.847 103.736 43.8468 103.591 43.7024C103.447 43.558 103.448 43.3241 103.592 43.1799L103.626 43.1462C103.77 43.0018 104.004 43.0016 104.148 43.1457ZM71.235 45.7373C71.3552 45.5724 71.5863 45.5363 71.7511 45.6565L71.7897 45.6845C71.9548 45.8044 71.9914 46.0354 71.8715 46.2005C71.7516 46.3656 71.5206 46.4022 71.3555 46.2823L71.3158 46.2534C71.1509 46.1332 71.1148 45.9021 71.235 45.7373ZM101.211 45.7373C101.331 45.9021 101.295 46.1332 101.13 46.2534L101.091 46.2823C100.925 46.4022 100.694 46.3656 100.575 46.2005C100.455 46.0354 100.491 45.8044 100.656 45.6845L100.695 45.6565C100.86 45.5363 101.091 45.5724 101.211 45.7373ZM74.54 47.8392C74.633 47.6576 74.8556 47.5857 75.0372 47.6786L75.0797 47.7003C75.2615 47.7929 75.3338 48.0154 75.2412 48.1972C75.1486 48.379 74.9262 48.4513 74.7444 48.3587L74.7006 48.3364C74.519 48.2434 74.4471 48.0208 74.54 47.8392ZM97.906 47.8392C97.9989 48.0208 97.9271 48.2434 97.7454 48.3364L97.7017 48.3587C97.5199 48.4513 97.2974 48.379 97.2048 48.1972C97.1122 48.0154 97.1846 47.7929 97.3664 47.7003L97.4088 47.6786C97.5905 47.5857 97.813 47.6576 97.906 47.8392ZM78.134 49.3967C78.1972 49.2027 78.4057 49.0967 78.5997 49.1599L78.6451 49.1747C78.8392 49.2375 78.9456 49.4458 78.8828 49.6399C78.82 49.834 78.6117 49.9404 78.4176 49.8776L78.3708 49.8624C78.1768 49.7992 78.0708 49.5907 78.134 49.3967ZM94.3121 49.3967C94.3753 49.5907 94.2692 49.7992 94.0752 49.8624L94.0285 49.8776C93.8343 49.9404 93.626 49.834 93.5632 49.6399C93.5004 49.4458 93.6068 49.2375 93.801 49.1747L93.8464 49.1599C94.0404 49.0967 94.2488 49.2027 94.3121 49.3967ZM81.9288 50.3687C81.9606 50.1671 82.1498 50.0296 82.3514 50.0615L82.3986 50.0689C82.6002 50.1004 82.7381 50.2893 82.7066 50.4909C82.6752 50.6925 82.4862 50.8304 82.2846 50.7989L82.2359 50.7913C82.0344 50.7594 81.8969 50.5702 81.9288 50.3687ZM90.5173 50.3687C90.5491 50.5702 90.4116 50.7594 90.2101 50.7913L90.1614 50.7989C89.9598 50.8304 89.7709 50.6925 89.7394 50.4909C89.7079 50.2893 89.8458 50.1004 90.0474 50.0689L90.0947 50.0615C90.2962 50.0296 90.4854 50.1671 90.5173 50.3687ZM85.8293 50.7336C85.8294 50.5295 85.995 50.3643 86.199 50.3645H86.247C86.451 50.3643 86.6166 50.5295 86.6168 50.7336C86.617 50.9376 86.4517 51.1031 86.2477 51.1033H86.1983C85.9943 51.1031 85.8291 50.9376 85.8293 50.7336Z" fill="white"/>
<path d="M87.043 50.7337C87.043 51.1871 86.6754 51.5547 86.222 51.5547C85.7686 51.5547 85.4011 51.1871 85.4011 50.7337C85.4011 50.2804 85.7686 49.9128 86.222 49.9128C86.6754 49.9128 87.043 50.2804 87.043 50.7337Z" fill="#6966FF"/>
<path d="M111.178 26.5986C110.725 26.5986 110.357 26.2311 110.357 25.7777C110.357 25.3243 110.725 24.9567 111.178 24.9567C111.632 24.9567 111.999 25.3243 111.999 25.7777C111.999 26.2311 111.632 26.5986 111.178 26.5986Z" fill="#6966FF"/>
<path d="M87.043 0.820658C87.043 1.27405 86.6754 1.6416 86.222 1.6416C85.7686 1.6416 85.4011 1.27405 85.4011 0.820658C85.4011 0.367264 85.7686 -0.000284783 86.222 -0.000284744C86.6754 -0.000284704 87.043 0.367264 87.043 0.820658Z" fill="#6966FF"/>
<path fill-rule="evenodd" clip-rule="evenodd" d="M93.3953 10.3887H100.204L78.2832 41.0895H71.5879L93.3953 10.3887ZM85.3971 19.4352L78.9807 10.3887H72.1459L82.0494 24.3697L85.3971 19.4352ZM83.7186 19.4526L82.025 21.9491L74.813 11.7679H78.2681L83.7186 19.4526ZM74.2593 39.7103H77.5733L97.5243 11.7679H94.1074L74.2593 39.7103Z" fill="white"/>
<path fill-rule="evenodd" clip-rule="evenodd" d="M94.8183 39.6842C94.8645 39.7484 94.9389 39.7865 95.018 39.7865H98.203L90.636 29.0414C90.5378 28.9019 90.3309 28.9022 90.233 29.0419L88.8152 31.0674C88.7551 31.1532 88.7559 31.2675 88.8171 31.3525L94.8183 39.6842ZM87.0234 31.222L94.1857 41.1657H100.861L90.4307 26.3545L87.0234 31.222Z" fill="url(#paint0_linear_3655_3256)"/>
<path fill-rule="evenodd" clip-rule="evenodd" d="M23.4096 10.3887H17.5577V19.5238C15.8676 18.6197 13.9273 18.1055 11.8639 18.1055C5.31271 18.1055 0.00195312 23.288 0.00195312 29.6808C0.00195312 36.0737 5.31271 41.2561 11.8639 41.2561C13.9273 41.2561 15.8676 40.742 17.5577 39.8379V40.9805H23.4096V10.3887ZM18.5196 29.6199C18.5196 33.2406 15.5118 36.1758 11.8014 36.1758C8.09099 36.1758 5.08313 33.2406 5.08313 29.6199C5.08313 25.9991 8.09099 23.0639 11.8014 23.0639C15.5118 23.0639 18.5196 25.9991 18.5196 29.6199ZM47.1208 10.3887L25.3603 40.9806H32.1822L53.9217 10.3887H47.1208ZM64.0944 10.3887H69.9463V40.9805H64.0944V39.8379C62.4043 40.742 60.464 41.2561 58.4006 41.2561C51.8494 41.2561 46.5386 36.0737 46.5386 29.6808C46.5386 23.288 51.8494 18.1055 58.4006 18.1055C60.464 18.1055 62.4043 18.6197 64.0944 19.5238V10.3887ZM58.3381 36.1758C62.0485 36.1758 65.0563 33.2406 65.0563 29.6199C65.0563 25.9991 62.0485 23.0639 58.3381 23.0639C54.6277 23.0639 51.6198 25.9991 51.6198 29.6199C51.6198 33.2406 54.6277 36.1758 58.3381 36.1758ZM39.0152 19.6762L32.1879 10.3887H25.082L35.2532 24.8663L39.0152 19.6762Z" fill="white"/>
<defs>
<linearGradient id="paint0_linear_3655_3256" x1="95.6897" y1="38.8344" x2="84.6571" y2="23.6755" gradientUnits="userSpaceOnUse">
<stop stop-color="#6966FF"/>
<stop offset="1" stop-color="#6966FF" stop-opacity="0.36"/>
</linearGradient>
</defs>
</svg>
